<svg role="img" viewBox="0 0 24 24" xmlns="http://www.w3.org/2000/svg"><title>BMW icon</title><path d="M12 0C5.372 0 0 5.372 0 12s5.372 12 12 12 12-5.372 12-12S18.628 0 12 0zM.369 12C.369 5.576 5.576.368 12 .368S23.632 5.576 23.632 12c0 6.424-5.208 11.632-11.632 11.632C5.576 23.632.369 18.424.369 12zm18.887 0a7.29 7.29 0 0 1-.907 3.541c-1.251 2.236-3.747 3.697-6.349 3.722v.006A7.268 7.268 0 0 1 4.731 12h.005c.027-2.693 1.621-5.35 4.114-6.552A7.317 7.317 0 0 1 12 4.731h.033A7.27 7.27 0 0 1 19.269 12h-.013zM12 5.106h-.022c-2.582.012-5.101 1.607-6.21 3.944a6.872 6.872 0 0 0-.65 2.95H12v6.888c.42.004.842-.031 1.262-.109 2.507-.465 4.671-2.433 5.371-4.892A6.56 6.56 0 0 0 18.876 12H12V5.106zm-7.85-.938L2.411 6.347l2.556 2.041 1.806-2.263a.868.868 0 0 0-.14-1.215.859.859 0 0 0-1.171.093.775.775 0 0 0-.212-.946.788.788 0 0 0-1.1.111zm14.996-.684l.605.561-1.135 1.489 1.818-.831.246.309.284.354-1.207 1.591 1.701-.781.416.713-2.951 1.354-.416-.713 1.432-1.887-2.153.987-.605-.563 1.965-2.583zM5.513 5.568a.363.363 0 1 1 .568.454L5.022 7.348l-.568-.454 1.059-1.326zm-1.117-.737a.364.364 0 0 1 .568.453l-.982 1.232-.569-.453.983-1.232zm7.975-.585h-.743l-.705-2.182-.075 2.183-.847.121.118-3.271 1.094-.121L12 3.278l.787-2.302 1.093.121.119 3.271-.848-.121-.075-2.183-.705 2.182z"/></svg>